  0
SECTION
  2
HEADER
  9
$EXTMIN
 10
-0.152000
 20
-0.149000
  9
$EXTMAX
 10
0.555000
 20
0.605000
  9
$LIMMIN
 10
-0.152000
 20
-0.149000
  9
$LIMMAX
 10
0.555000
 20
0.605000
  9
$FILLMODE
 70
  1
  0
ENDSEC
  0
SECTION
  2
TABLES
  0
TABLE
  2
LTYPE
 70
  1
  0
LTYPE
  2
CONTINUOUS
 70
 64
  3
Solid line
 72
 65
 73
  0
 40
0.0
  0
ENDTAB
  0
TABLE
  2
LAYER
 70
 1
  0
LAYER
  2
0
 70
  0
 62
7
  6
CONTINUOUS
  0
LAYER
  2
gg1
 70
  0
 62
1
  6
CONTINUOUS
  0
ENDTAB
  0
TABLE
  2
STYLE
 70
  1
  0
STYLE
  2
STANDARD
 70
  0
 40
0.0
 41
1.0
 50
0.0
 71
  0
 42
0.2
  3
txt
  4

  0
ENDTAB
  0
ENDSEC
  0
SECTION
  2
BLOCKS
  0
BLOCK
  8
0
  2
D10
 70
64
 10
0.0
 20
0.0
  3
D10
  0
CIRCLE
  8
0
 10
0.000000
 20
0.000000
 40
0.005000
 0
ENDBLK
  8
0
  0
BLOCK
  8
0
  2
D11
 70
64
 10
0.0
 20
0.0
  3
D11
  0
CIRCLE
  8
0
 10
0.000000
 20
0.000000
 40
0.002500
 0
ENDBLK
  8
0
  0
BLOCK
  8
0
  2
D12
 70
64
 10
0.0
 20
0.0
  3
D12
  0
CIRCLE
  8
0
 10
0.000000
 20
0.000000
 40
0.003000
 0
ENDBLK
  8
0
  0
ENDSEC
  0
SECTION
  2
ENTITIES
  0
POLYLINE
  8
gg1
 62
1
 40
0.000000
 41
0.000000
 66
  1
  0
VERTEX
  8
gg1
 10
0.450000
 20
-0.120000
  0
VERTEX
  8
gg1
 10
0.450000
 20
-0.012500
  0
SEQEND
  8
gg1
  0
POLYLINE
  8
gg1
 62
1
 40
0.000000
 41
0.000000
 66
  1
  0
VERTEX
  8
gg1
 10
0.000000
 20
-0.120000
  0
VERTEX
  8
gg1
 10
0.000000
 20
-0.012500
  0
SEQEND
  8
gg1
  0
POLYLINE
  8
gg1
 62
1
 40
0.000000
 41
0.000000
 66
  1
  0
VERTEX
  8
gg1
 10
-0.100000
 20
-0.110000
  0
VERTEX
  8
gg1
 10
0.000000
 20
-0.110000
  0
SEQEND
  8
gg1
  0
POLYLINE
  8
gg1
 62
1
 40
0.000000
 41
0.000000
 66
  1
  0
VERTEX
  8
gg1
 10
0.450000
 20
-0.110000
  0
VERTEX
  8
gg1
 10
0.550000
 20
-0.110000
  0
SEQEND
  8
gg1
  0
POLYLINE
  8
gg1
 62
1
 40
0.000000
 41
0.000000
 66
  1
  0
VERTEX
  8
gg1
 10
-0.060000
 20
-0.090000
  0
VERTEX
  8
gg1
 10
0.000000
 20
-0.110000
  0
SEQEND
  8
gg1
  0
POLYLINE
  8
gg1
 62
1
 40
0.000000
 41
0.000000
 66
  1
  0
VERTEX
  8
gg1
 10
-0.060000
 20
-0.130000
  0
VERTEX
  8
gg1
 10
0.000000
 20
-0.110000
  0
SEQEND
  8
gg1
  0
POLYLINE
  8
gg1
 62
1
 40
0.000000
 41
0.000000
 66
  1
  0
VERTEX
  8
gg1
 10
0.450000
 20
-0.110000
  0
VERTEX
  8
gg1
 10
0.510000
 20
-0.130000
  0
SEQEND
  8
gg1
  0
POLYLINE
  8
gg1
 62
1
 40
0.000000
 41
0.000000
 66
  1
  0
VERTEX
  8
gg1
 10
0.450000
 20
-0.110000
  0
VERTEX
  8
gg1
 10
0.510000
 20
-0.090000
  0
SEQEND
  8
gg1
  0
POLYLINE
  8
gg1
 62
1
 40
0.000000
 41
0.000000
 66
  1
  0
VERTEX
  8
gg1
 10
-0.135000
 20
0.000000
  0
VERTEX
  8
gg1
 10
-0.012500
 20
0.000000
  0
SEQEND
  8
gg1
  0
POLYLINE
  8
gg1
 62
1
 40
0.000000
 41
0.000000
 66
  1
  0
VERTEX
  8
gg1
 10
-0.135000
 20
0.600000
  0
VERTEX
  8
gg1
 10
-0.012500
 20
0.600000
  0
SEQEND
  8
gg1
  0
POLYLINE
  8
gg1
 62
1
 40
0.000000
 41
0.000000
 66
  1
  0
VERTEX
  8
gg1
 10
-0.125000
 20
0.000000
  0
VERTEX
  8
gg1
 10
-0.125000
 20
0.113000
  0
SEQEND
  8
gg1
  0
POLYLINE
  8
gg1
 62
1
 40
0.000000
 41
0.000000
 66
  1
  0
VERTEX
  8
gg1
 10
-0.125000
 20
0.455000
  0
VERTEX
  8
gg1
 10
-0.125000
 20
0.600000
  0
SEQEND
  8
gg1
  0
POLYLINE
  8
gg1
 62
1
 40
0.000000
 41
0.000000
 66
  1
  0
VERTEX
  8
gg1
 10
-0.125000
 20
0.000000
  0
VERTEX
  8
gg1
 10
-0.105000
 20
0.060000
  0
SEQEND
  8
gg1
  0
POLYLINE
  8
gg1
 62
1
 40
0.000000
 41
0.000000
 66
  1
  0
VERTEX
  8
gg1
 10
-0.145000
 20
0.060000
  0
VERTEX
  8
gg1
 10
-0.125000
 20
0.000000
  0
SEQEND
  8
gg1
  0
POLYLINE
  8
gg1
 62
1
 40
0.000000
 41
0.000000
 66
  1
  0
VERTEX
  8
gg1
 10
-0.145000
 20
0.540000
  0
VERTEX
  8
gg1
 10
-0.125000
 20
0.600000
  0
VERTEX
  8
gg1
 10
-0.105000
 20
0.540000
  0
SEQEND
  8
gg1
  0
POLYLINE
  8
gg1
 62
1
 40
0.000000
 41
0.000000
 66
  1
  0
VERTEX
  8
gg1
 10
0.450000
 20
0.000000
  0
VERTEX
  8
gg1
 10
0.450000
 20
0.600000
  0
SEQEND
  8
gg1
  0
POLYLINE
  8
gg1
 62
1
 40
0.000000
 41
0.000000
 66
  1
  0
VERTEX
  8
gg1
 10
0.000000
 20
0.600000
  0
VERTEX
  8
gg1
 10
0.450000
 20
0.600000
  0
SEQEND
  8
gg1
  0
POLYLINE
  8
gg1
 62
1
 40
0.000000
 41
0.000000
 66
  1
  0
VERTEX
  8
gg1
 10
0.000000
 20
0.000000
  0
VERTEX
  8
gg1
 10
0.000000
 20
0.600000
  0
SEQEND
  8
gg1
  0
POLYLINE
  8
gg1
 62
1
 40
0.000000
 41
0.000000
 66
  1
  0
VERTEX
  8
gg1
 10
0.000000
 20
0.000000
  0
VERTEX
  8
gg1
 10
0.450000
 20
0.000000
  0
SEQEND
  8
gg1
  0
POLYLINE
  8
gg1
 62
1
 40
0.000000
 41
0.000000
 66
  1
  0
VERTEX
  8
gg1
 10
0.355000
 20
0.050000
  0
VERTEX
  8
gg1
 10
0.395000
 20
0.050000
  0
SEQEND
  8
gg1
  0
POLYLINE
  8
gg1
 62
1
 40
0.000000
 41
0.000000
 66
  1
  0
VERTEX
  8
gg1
 10
0.375000
 20
0.030000
  0
VERTEX
  8
gg1
 10
0.375000
 20
0.070000
  0
SEQEND
  8
gg1
  0
POLYLINE
  8
gg1
 62
1
 40
0.000000
 41
0.000000
 66
  1
  0
VERTEX
  8
gg1
 10
0.255000
 20
0.050000
  0
VERTEX
  8
gg1
 10
0.295000
 20
0.050000
  0
SEQEND
  8
gg1
  0
POLYLINE
  8
gg1
 62
1
 40
0.000000
 41
0.000000
 66
  1
  0
VERTEX
  8
gg1
 10
0.275000
 20
0.030000
  0
VERTEX
  8
gg1
 10
0.275000
 20
0.070000
  0
SEQEND
  8
gg1
  0
POLYLINE
  8
gg1
 62
1
 40
0.000000
 41
0.000000
 66
  1
  0
VERTEX
  8
gg1
 10
0.155000
 20
0.050000
  0
VERTEX
  8
gg1
 10
0.195000
 20
0.050000
  0
SEQEND
  8
gg1
  0
POLYLINE
  8
gg1
 62
1
 40
0.000000
 41
0.000000
 66
  1
  0
VERTEX
  8
gg1
 10
0.175000
 20
0.030000
  0
VERTEX
  8
gg1
 10
0.175000
 20
0.070000
  0
SEQEND
  8
gg1
  0
POLYLINE
  8
gg1
 62
1
 40
0.000000
 41
0.000000
 66
  1
  0
VERTEX
  8
gg1
 10
0.055000
 20
0.050000
  0
VERTEX
  8
gg1
 10
0.095000
 20
0.050000
  0
SEQEND
  8
gg1
  0
POLYLINE
  8
gg1
 62
1
 40
0.000000
 41
0.000000
 66
  1
  0
VERTEX
  8
gg1
 10
0.075000
 20
0.030000
  0
VERTEX
  8
gg1
 10
0.075000
 20
0.070000
  0
SEQEND
  8
gg1
  0
POLYLINE
  8
gg1
 62
1
 40
0.000000
 41
0.000000
 66
  1
  0
VERTEX
  8
gg1
 10
0.303400
 20
0.232400
  0
VERTEX
  8
gg1
 10
0.318400
 20
0.232400
  0
SEQEND
  8
gg1
  0
POLYLINE
  8
gg1
 62
1
 40
0.000000
 41
0.000000
 66
  1
  0
VERTEX
  8
gg1
 10
0.310900
 20
0.224900
  0
VERTEX
  8
gg1
 10
0.310900
 20
0.239900
  0
SEQEND
  8
gg1
  0
POLYLINE
  8
gg1
 62
1
 40
0.000000
 41
0.000000
 66
  1
  0
VERTEX
  8
gg1
 10
0.047500
 20
0.355000
  0
VERTEX
  8
gg1
 10
0.062500
 20
0.355000
  0
SEQEND
  8
gg1
  0
POLYLINE
  8
gg1
 62
1
 40
0.000000
 41
0.000000
 66
  1
  0
VERTEX
  8
gg1
 10
0.055000
 20
0.347500
  0
VERTEX
  8
gg1
 10
0.055000
 20
0.362500
  0
SEQEND
  8
gg1
  0
POLYLINE
  8
gg1
 62
1
 40
0.000000
 41
0.000000
 66
  1
  0
VERTEX
  8
gg1
 10
0.047500
 20
0.415000
  0
VERTEX
  8
gg1
 10
0.062500
 20
0.415000
  0
SEQEND
  8
gg1
  0
POLYLINE
  8
gg1
 62
1
 40
0.000000
 41
0.000000
 66
  1
  0
VERTEX
  8
gg1
 10
0.055000
 20
0.407500
  0
VERTEX
  8
gg1
 10
0.055000
 20
0.422500
  0
SEQEND
  8
gg1
  0
POLYLINE
  8
gg1
 62
1
 40
0.000000
 41
0.000000
 66
  1
  0
VERTEX
  8
gg1
 10
0.032500
 20
0.385000
  0
VERTEX
  8
gg1
 10
0.047500
 20
0.385000
  0
SEQEND
  8
gg1
  0
POLYLINE
  8
gg1
 62
1
 40
0.000000
 41
0.000000
 66
  1
  0
VERTEX
  8
gg1
 10
0.040000
 20
0.377500
  0
VERTEX
  8
gg1
 10
0.040000
 20
0.392500
  0
SEQEND
  8
gg1
  0
POLYLINE
  8
gg1
 62
1
 40
0.000000
 41
0.000000
 66
  1
  0
VERTEX
  8
gg1
 10
0.032500
 20
0.445000
  0
VERTEX
  8
gg1
 10
0.047500
 20
0.445000
  0
SEQEND
  8
gg1
  0
POLYLINE
  8
gg1
 62
1
 40
0.000000
 41
0.000000
 66
  1
  0
VERTEX
  8
gg1
 10
0.040000
 20
0.437500
  0
VERTEX
  8
gg1
 10
0.040000
 20
0.452500
  0
SEQEND
  8
gg1
  0
POLYLINE
  8
gg1
 62
1
 40
0.000000
 41
0.000000
 66
  1
  0
VERTEX
  8
gg1
 10
0.097500
 20
0.540000
  0
VERTEX
  8
gg1
 10
0.112500
 20
0.540000
  0
SEQEND
  8
gg1
  0
POLYLINE
  8
gg1
 62
1
 40
0.000000
 41
0.000000
 66
  1
  0
VERTEX
  8
gg1
 10
0.105000
 20
0.532500
  0
VERTEX
  8
gg1
 10
0.105000
 20
0.547500
  0
SEQEND
  8
gg1
  0
POLYLINE
  8
gg1
 62
1
 40
0.000000
 41
0.000000
 66
  1
  0
VERTEX
  8
gg1
 10
0.037500
 20
0.490000
  0
VERTEX
  8
gg1
 10
0.052500
 20
0.490000
  0
SEQEND
  8
gg1
  0
POLYLINE
  8
gg1
 62
1
 40
0.000000
 41
0.000000
 66
  1
  0
VERTEX
  8
gg1
 10
0.045000
 20
0.482500
  0
VERTEX
  8
gg1
 10
0.045000
 20
0.497500
  0
SEQEND
  8
gg1
  0
POLYLINE
  8
gg1
 62
1
 40
0.000000
 41
0.000000
 66
  1
  0
VERTEX
  8
gg1
 10
0.187500
 20
0.499000
  0
VERTEX
  8
gg1
 10
0.202500
 20
0.499000
  0
SEQEND
  8
gg1
  0
POLYLINE
  8
gg1
 62
1
 40
0.000000
 41
0.000000
 66
  1
  0
VERTEX
  8
gg1
 10
0.195000
 20
0.491500
  0
VERTEX
  8
gg1
 10
0.195000
 20
0.506500
  0
SEQEND
  8
gg1
  0
POLYLINE
  8
gg1
 62
1
 40
0.000000
 41
0.000000
 66
  1
  0
VERTEX
  8
gg1
 10
0.287500
 20
0.275000
  0
VERTEX
  8
gg1
 10
0.302500
 20
0.275000
  0
SEQEND
  8
gg1
  0
POLYLINE
  8
gg1
 62
1
 40
0.000000
 41
0.000000
 66
  1
  0
VERTEX
  8
gg1
 10
0.295000
 20
0.267500
  0
VERTEX
  8
gg1
 10
0.295000
 20
0.282500
  0
SEQEND
  8
gg1
  0
POLYLINE
  8
gg1
 62
1
 40
0.000000
 41
0.000000
 66
  1
  0
VERTEX
  8
gg1
 10
0.217500
 20
0.200000
  0
VERTEX
  8
gg1
 10
0.232500
 20
0.200000
  0
SEQEND
  8
gg1
  0
POLYLINE
  8
gg1
 62
1
 40
0.000000
 41
0.000000
 66
  1
  0
VERTEX
  8
gg1
 10
0.225000
 20
0.192500
  0
VERTEX
  8
gg1
 10
0.225000
 20
0.207500
  0
SEQEND
  8
gg1
  0
POLYLINE
  8
gg1
 62
1
 40
0.000000
 41
0.000000
 66
  1
  0
VERTEX
  8
gg1
 10
0.247000
 20
0.182300
  0
VERTEX
  8
gg1
 10
0.262000
 20
0.182300
  0
SEQEND
  8
gg1
  0
POLYLINE
  8
gg1
 62
1
 40
0.000000
 41
0.000000
 66
  1
  0
VERTEX
  8
gg1
 10
0.254500
 20
0.174800
  0
VERTEX
  8
gg1
 10
0.254500
 20
0.189800
  0
SEQEND
  8
gg1
  0
POLYLINE
  8
gg1
 62
1
 40
0.000000
 41
0.000000
 66
  1
  0
VERTEX
  8
gg1
 10
0.247000
 20
0.217700
  0
VERTEX
  8
gg1
 10
0.262000
 20
0.217700
  0
SEQEND
  8
gg1
  0
POLYLINE
  8
gg1
 62
1
 40
0.000000
 41
0.000000
 66
  1
  0
VERTEX
  8
gg1
 10
0.254500
 20
0.210200
  0
VERTEX
  8
gg1
 10
0.254500
 20
0.225200
  0
SEQEND
  8
gg1
  0
POLYLINE
  8
gg1
 62
1
 40
0.000000
 41
0.000000
 66
  1
  0
VERTEX
  8
gg1
 10
0.188000
 20
0.217700
  0
VERTEX
  8
gg1
 10
0.203000
 20
0.217700
  0
SEQEND
  8
gg1
  0
POLYLINE
  8
gg1
 62
1
 40
0.000000
 41
0.000000
 66
  1
  0
VERTEX
  8
gg1
 10
0.195500
 20
0.210200
  0
VERTEX
  8
gg1
 10
0.195500
 20
0.225200
  0
SEQEND
  8
gg1
  0
POLYLINE
  8
gg1
 62
1
 40
0.000000
 41
0.000000
 66
  1
  0
VERTEX
  8
gg1
 10
0.188000
 20
0.182300
  0
VERTEX
  8
gg1
 10
0.203000
 20
0.182300
  0
SEQEND
  8
gg1
  0
POLYLINE
  8
gg1
 62
1
 40
0.000000
 41
0.000000
 66
  1
  0
VERTEX
  8
gg1
 10
0.195500
 20
0.174800
  0
VERTEX
  8
gg1
 10
0.195500
 20
0.189800
  0
SEQEND
  8
gg1
  0
POLYLINE
  8
gg1
 62
1
 40
0.000000
 41
0.000000
 66
  1
  0
VERTEX
  8
gg1
 10
0.032500
 20
0.325000
  0
VERTEX
  8
gg1
 10
0.047500
 20
0.325000
  0
SEQEND
  8
gg1
  0
POLYLINE
  8
gg1
 62
1
 40
0.000000
 41
0.000000
 66
  1
  0
VERTEX
  8
gg1
 10
0.040000
 20
0.317500
  0
VERTEX
  8
gg1
 10
0.040000
 20
0.332500
  0
SEQEND
  8
gg1
  0
POLYLINE
  8
gg1
 62
1
 40
0.000000
 41
0.000000
 66
  1
  0
VERTEX
  8
gg1
 10
0.287500
 20
0.135000
  0
VERTEX
  8
gg1
 10
0.302500
 20
0.135000
  0
SEQEND
  8
gg1
  0
POLYLINE
  8
gg1
 62
1
 40
0.000000
 41
0.000000
 66
  1
  0
VERTEX
  8
gg1
 10
0.295000
 20
0.127500
  0
VERTEX
  8
gg1
 10
0.295000
 20
0.142500
  0
SEQEND
  8
gg1
  0
POLYLINE
  8
gg1
 62
1
 40
0.000000
 41
0.000000
 66
  1
  0
VERTEX
  8
gg1
 10
0.352500
 20
0.450000
  0
VERTEX
  8
gg1
 10
0.367500
 20
0.450000
  0
SEQEND
  8
gg1
  0
POLYLINE
  8
gg1
 62
1
 40
0.000000
 41
0.000000
 66
  1
  0
VERTEX
  8
gg1
 10
0.360000
 20
0.442500
  0
VERTEX
  8
gg1
 10
0.360000
 20
0.457500
  0
SEQEND
  8
gg1
  0
POLYLINE
  8
gg1
 62
1
 40
0.000000
 41
0.000000
 66
  1
  0
VERTEX
  8
gg1
 10
0.374500
 20
0.382600
  0
VERTEX
  8
gg1
 10
0.389500
 20
0.382600
  0
SEQEND
  8
gg1
  0
POLYLINE
  8
gg1
 62
1
 40
0.000000
 41
0.000000
 66
  1
  0
VERTEX
  8
gg1
 10
0.382000
 20
0.375100
  0
VERTEX
  8
gg1
 10
0.382000
 20
0.390100
  0
SEQEND
  8
gg1
  0
POLYLINE
  8
gg1
 62
1
 40
0.000000
 41
0.000000
 66
  1
  0
VERTEX
  8
gg1
 10
0.197800
 20
0.096700
  0
VERTEX
  8
gg1
 10
0.212800
 20
0.096700
  0
SEQEND
  8
gg1
  0
POLYLINE
  8
gg1
 62
1
 40
0.000000
 41
0.000000
 66
  1
  0
VERTEX
  8
gg1
 10
0.205300
 20
0.089200
  0
VERTEX
  8
gg1
 10
0.205300
 20
0.104200
  0
SEQEND
  8
gg1
  0
POLYLINE
  8
gg1
 62
1
 40
0.000000
 41
0.000000
 66
  1
  0
VERTEX
  8
gg1
 10
0.132000
 20
0.233500
  0
VERTEX
  8
gg1
 10
0.147000
 20
0.233500
  0
SEQEND
  8
gg1
  0
POLYLINE
  8
gg1
 62
1
 40
0.000000
 41
0.000000
 66
  1
  0
VERTEX
  8
gg1
 10
0.139500
 20
0.226000
  0
VERTEX
  8
gg1
 10
0.139500
 20
0.241000
  0
SEQEND
  8
gg1
  0
POLYLINE
  8
gg1
 62
1
 40
0.000000
 41
0.000000
 66
  1
  0
VERTEX
  8
gg1
 10
0.084000
 20
-0.146000
  0
VERTEX
  8
gg1
 10
0.084000
 20
-0.086000
  0
VERTEX
  8
gg1
 10
0.054000
 20
-0.116000
  0
VERTEX
  8
gg1
 10
0.094000
 20
-0.116000
  0
SEQEND
  8
gg1
  0
POLYLINE
  8
gg1
 62
1
 40
0.000000
 41
0.000000
 66
  1
  0
VERTEX
  8
gg1
 10
0.154000
 20
-0.086000
  0
VERTEX
  8
gg1
 10
0.114000
 20
-0.086000
  0
VERTEX
  8
gg1
 10
0.114000
 20
-0.116000
  0
VERTEX
  8
gg1
 10
0.134000
 20
-0.106000
  0
VERTEX
  8
gg1
 10
0.144000
 20
-0.106000
  0
VERTEX
  8
gg1
 10
0.154000
 20
-0.116000
  0
VERTEX
  8
gg1
 10
0.154000
 20
-0.136000
  0
VERTEX
  8
gg1
 10
0.144000
 20
-0.146000
  0
VERTEX
  8
gg1
 10
0.124000
 20
-0.146000
  0
VERTEX
  8
gg1
 10
0.114000
 20
-0.136000
  0
SEQEND
  8
gg1
  0
POLYLINE
  8
gg1
 62
1
 40
0.000000
 41
0.000000
 66
  1
  0
VERTEX
  8
gg1
 10
0.174000
 20
-0.096000
  0
VERTEX
  8
gg1
 10
0.184000
 20
-0.086000
  0
VERTEX
  8
gg1
 10
0.204000
 20
-0.086000
  0
VERTEX
  8
gg1
 10
0.214000
 20
-0.096000
  0
VERTEX
  8
gg1
 10
0.214000
 20
-0.136000
  0
VERTEX
  8
gg1
 10
0.204000
 20
-0.146000
  0
VERTEX
  8
gg1
 10
0.184000
 20
-0.146000
  0
VERTEX
  8
gg1
 10
0.174000
 20
-0.136000
  0
VERTEX
  8
gg1
 10
0.174000
 20
-0.096000
  0
SEQEND
  8
gg1
  0
POLYLINE
  8
gg1
 62
1
 40
0.000000
 41
0.000000
 66
  1
  0
VERTEX
  8
gg1
 10
0.234000
 20
-0.146000
  0
VERTEX
  8
gg1
 10
0.234000
 20
-0.106000
  0
VERTEX
  8
gg1
 10
0.244000
 20
-0.106000
  0
VERTEX
  8
gg1
 10
0.254000
 20
-0.116000
  0
VERTEX
  8
gg1
 10
0.254000
 20
-0.146000
  0
VERTEX
  8
gg1
 10
0.254000
 20
-0.116000
  0
VERTEX
  8
gg1
 10
0.264000
 20
-0.106000
  0
VERTEX
  8
gg1
 10
0.274000
 20
-0.116000
  0
VERTEX
  8
gg1
 10
0.274000
 20
-0.146000
  0
SEQEND
  8
gg1
  0
POLYLINE
  8
gg1
 62
1
 40
0.000000
 41
0.000000
 66
  1
  0
VERTEX
  8
gg1
 10
0.294000
 20
-0.146000
  0
VERTEX
  8
gg1
 10
0.314000
 20
-0.146000
  0
VERTEX
  8
gg1
 10
0.304000
 20
-0.146000
  0
VERTEX
  8
gg1
 10
0.304000
 20
-0.106000
  0
VERTEX
  8
gg1
 10
0.294000
 20
-0.106000
  0
SEQEND
  8
gg1
  0
POLYLINE
  8
gg1
 62
1
 40
0.000000
 41
0.000000
 66
  1
  0
VERTEX
  8
gg1
 10
0.344000
 20
-0.146000
  0
VERTEX
  8
gg1
 10
0.364000
 20
-0.146000
  0
VERTEX
  8
gg1
 10
0.354000
 20
-0.146000
  0
VERTEX
  8
gg1
 10
0.354000
 20
-0.086000
  0
VERTEX
  8
gg1
 10
0.344000
 20
-0.086000
  0
SEQEND
  8
gg1
  0
POLYLINE
  8
gg1
 62
1
 40
0.000000
 41
0.000000
 66
  1
  0
VERTEX
  8
gg1
 10
-0.149000
 20
0.169000
  0
VERTEX
  8
gg1
 10
-0.139000
 20
0.149000
  0
VERTEX
  8
gg1
 10
-0.119000
 20
0.129100
  0
VERTEX
  8
gg1
 10
-0.099000
 20
0.129100
  0
VERTEX
  8
gg1
 10
-0.089000
 20
0.139000
  0
VERTEX
  8
gg1
 10
-0.089000
 20
0.159000
  0
VERTEX
  8
gg1
 10
-0.099000
 20
0.169000
  0
VERTEX
  8
gg1
 10
-0.109000
 20
0.169000
  0
VERTEX
  8
gg1
 10
-0.119000
 20
0.159000
  0
VERTEX
  8
gg1
 10
-0.119000
 20
0.129100
  0
SEQEND
  8
gg1
  0
POLYLINE
  8
gg1
 62
1
 40
0.000000
 41
0.000000
 66
  1
  0
VERTEX
  8
gg1
 10
-0.139000
 20
0.189000
  0
VERTEX
  8
gg1
 10
-0.149000
 20
0.199000
  0
VERTEX
  8
gg1
 10
-0.149000
 20
0.219000
  0
VERTEX
  8
gg1
 10
-0.139000
 20
0.229000
  0
VERTEX
  8
gg1
 10
-0.099000
 20
0.229000
  0
VERTEX
  8
gg1
 10
-0.089000
 20
0.219000
  0
VERTEX
  8
gg1
 10
-0.089000
 20
0.199000
  0
VERTEX
  8
gg1
 10
-0.099000
 20
0.189000
  0
VERTEX
  8
gg1
 10
-0.139000
 20
0.189000
  0
SEQEND
  8
gg1
  0
POLYLINE
  8
gg1
 62
1
 40
0.000000
 41
0.000000
 66
  1
  0
VERTEX
  8
gg1
 10
-0.139000
 20
0.249000
  0
VERTEX
  8
gg1
 10
-0.149000
 20
0.259000
  0
VERTEX
  8
gg1
 10
-0.149000
 20
0.279000
  0
VERTEX
  8
gg1
 10
-0.139000
 20
0.289000
  0
VERTEX
  8
gg1
 10
-0.099000
 20
0.289000
  0
VERTEX
  8
gg1
 10
-0.089000
 20
0.279000
  0
VERTEX
  8
gg1
 10
-0.089000
 20
0.259000
  0
VERTEX
  8
gg1
 10
-0.099000
 20
0.249000
  0
VERTEX
  8
gg1
 10
-0.139000
 20
0.249000
  0
SEQEND
  8
gg1
  0
POLYLINE
  8
gg1
 62
1
 40
0.000000
 41
0.000000
 66
  1
  0
VERTEX
  8
gg1
 10
-0.089000
 20
0.309000
  0
VERTEX
  8
gg1
 10
-0.129000
 20
0.309000
  0
VERTEX
  8
gg1
 10
-0.129000
 20
0.319000
  0
VERTEX
  8
gg1
 10
-0.119000
 20
0.329000
  0
VERTEX
  8
gg1
 10
-0.089000
 20
0.329000
  0
VERTEX
  8
gg1
 10
-0.119000
 20
0.329000
  0
VERTEX
  8
gg1
 10
-0.129000
 20
0.339000
  0
VERTEX
  8
gg1
 10
-0.119000
 20
0.349000
  0
VERTEX
  8
gg1
 10
-0.089000
 20
0.349000
  0
SEQEND
  8
gg1
  0
POLYLINE
  8
gg1
 62
1
 40
0.000000
 41
0.000000
 66
  1
  0
VERTEX
  8
gg1
 10
-0.089000
 20
0.369000
  0
VERTEX
  8
gg1
 10
-0.089000
 20
0.389000
  0
VERTEX
  8
gg1
 10
-0.089000
 20
0.379000
  0
VERTEX
  8
gg1
 10
-0.129000
 20
0.379000
  0
VERTEX
  8
gg1
 10
-0.129000
 20
0.369000
  0
SEQEND
  8
gg1
  0
POLYLINE
  8
gg1
 62
1
 40
0.000000
 41
0.000000
 66
  1
  0
VERTEX
  8
gg1
 10
-0.089000
 20
0.419000
  0
VERTEX
  8
gg1
 10
-0.089000
 20
0.439000
  0
VERTEX
  8
gg1
 10
-0.089000
 20
0.429000
  0
VERTEX
  8
gg1
 10
-0.149000
 20
0.429000
  0
VERTEX
  8
gg1
 10
-0.149000
 20
0.419000
  0
SEQEND
  8
gg1
  0
ENDSEC
  0
EOF
